<svg width="26" height="26" viewBox="0 0 26 26" fill="none" xmlns="http://www.w3.org/2000/svg">
<g filter="url(#filter0_d)">
<path fill-rule="evenodd" clip-rule="evenodd" d="M21.5999 17.642L17.8895 13.9318C18.7837 12.641 19.231 11.202 19.231 9.61561C19.231 8.58437 19.0308 7.59809 18.6304 6.65702C18.2303 5.71579 17.6893 4.90453 17.0078 4.22303C16.3264 3.54153 15.5152 3.0006 14.5742 2.60042C13.6329 2.20013 12.6467 2 11.6154 2C10.5843 2 9.59802 2.20013 8.65696 2.60042C7.71575 3.0006 6.90449 3.54153 6.223 4.22303C5.54143 4.90453 5.00058 5.71595 4.60037 6.65702C4.20012 7.59821 4 8.58437 4 9.61561C4 10.6468 4.20012 11.6327 4.60037 12.5741C5.00055 13.5151 5.54143 14.3263 6.223 15.0078C6.90449 15.6895 7.7159 16.2302 8.65696 16.6306C9.59813 17.0308 10.5843 17.2309 11.6154 17.2309C13.2022 17.2309 14.6409 16.7836 15.9317 15.8895L19.642 19.5889C19.9017 19.8629 20.2257 20 20.6155 20C20.9905 20 21.3152 19.863 21.589 19.5889C21.8629 19.315 22 18.9905 22 18.6155C22.0001 18.2335 21.8667 17.9088 21.5999 17.642ZM15.0391 13.039C14.0909 13.9874 12.9497 14.4617 11.6154 14.4617C10.2814 14.4617 9.14026 13.9873 8.19189 13.039C7.24351 12.0907 6.76934 10.9497 6.76934 9.61539C6.76934 8.28133 7.24363 7.13998 8.19189 6.19179C9.14007 5.24336 10.2814 4.76923 11.6154 4.76923C12.9496 4.76923 14.0907 5.24355 15.0391 6.19179C15.9876 7.13998 16.4618 8.28133 16.4618 9.61539C16.4618 10.9497 15.9874 12.0907 15.0391 13.039Z" fill="#282340"/>
</g>
<defs>
<filter id="filter0_d" x="0" y="0" width="26" height="26" filterUnits="userSpaceOnUse" color-interpolation-filters="sRGB">
<feFlood flood-opacity="0" result="BackgroundImageFix"/>
<feColorMatrix in="SourceAlpha" type="matrix" values="0 0 0 0 0 0 0 0 0 0 0 0 0 0 0 0 0 0 127 0"/>
<feOffset dy="2"/>
<feGaussianBlur stdDeviation="2"/>
<feColorMatrix type="matrix" values="0 0 0 0 0 0 0 0 0 0 0 0 0 0 0 0 0 0 0.202934 0"/>
<feBlend mode="normal" in2="BackgroundImageFix" result="effect1_dropShadow"/>
<feBlend mode="normal" in="SourceGraphic" in2="effect1_dropShadow" result="shape"/>
</filter>
</defs>
</svg>
