<svg width="24" height="24" viewBox="0 0 24 24" fill="none" xmlns="http://www.w3.org/2000/svg">
<path d="M2.75 0V24H5.20572V23.1654C5.20572 22.7473 5.5459 22.4071 5.96403 22.4071C6.38215 22.4071 6.72234 22.7473 6.72234 23.1654V24H9.22957V23.1654C9.22957 22.7473 9.56973 22.4071 9.98783 22.4071C10.4059 22.4071 10.7461 22.7473 10.7461 23.1654V24H13.2534V23.1654C13.2534 22.7473 13.5935 22.4071 14.0116 22.4071C14.4297 22.4071 14.7699 22.7473 14.7699 23.1654V24H17.2772V23.1654C17.2772 22.7473 17.6173 22.4071 18.0354 22.4071C18.4536 22.4071 18.7937 22.7473 18.7937 23.1654V24H21.2495V0H18.7938V0.834606C18.7938 1.25273 18.4536 1.59289 18.0355 1.59289C17.6174 1.59289 17.2772 1.25273 17.2772 0.834606V0H14.7699V0.834606C14.7699 1.25273 14.4298 1.59289 14.0117 1.59289C13.5936 1.59289 13.2534 1.25273 13.2534 0.834606V0H10.7461V0.834606C10.7461 1.25273 10.406 1.59289 9.98785 1.59289C9.56976 1.59289 9.22957 1.25273 9.22957 0.834606V0H6.72234V0.834606C6.72234 1.25273 6.38215 1.59289 5.96403 1.59289C5.5459 1.59289 5.20572 1.25273 5.20572 0.834606V0H2.75ZM5.96403 3.2621C6.80028 3.2621 7.5392 2.83697 7.97597 2.19155C8.41273 2.83697 9.15161 3.2621 9.98788 3.2621C10.8242 3.2621 11.5631 2.83707 11.9998 2.19155C12.4366 2.83707 13.1754 3.2621 14.0117 3.2621C14.8481 3.2621 15.587 2.83704 16.0237 2.19155C16.4604 2.83707 17.1992 3.2621 18.0356 3.2621C18.6219 3.2621 19.1604 3.05314 19.5804 2.70579V21.2942C19.1604 20.9469 18.6219 20.7379 18.0356 20.7379C17.1993 20.7379 16.4604 21.163 16.0237 21.8085C15.587 21.1629 14.8481 20.7379 14.0117 20.7379C13.1754 20.7379 12.4365 21.1629 11.9998 21.8085C11.5631 21.1629 10.8242 20.7379 9.98785 20.7379C9.15163 20.7379 8.41271 21.163 7.97594 21.8085C7.53917 21.163 6.80028 20.7379 5.964 20.7379C5.37765 20.7379 4.83918 20.9469 4.41919 21.2942V2.70579C4.83921 3.05314 5.37767 3.2621 5.96403 3.2621Z" fill="#fff"/>
<path d="M16.9319 5.26685H7.29199V6.93605H16.9319V5.26685Z" fill="#fff"/>
<path d="M16.9319 8.73364H7.29199V10.4029H16.9319V8.73364Z" fill="#fff"/>
<path d="M16.9319 12.2002H7.29199V13.8694H16.9319V12.2002Z" fill="#fff"/>
<path d="M16.932 17.2078H10.769V18.877H16.932V17.2078Z" fill="#fff"/>
</svg>
